# xmcd
#
# Track frame offsets:
# 150
# 13941
# 24502
# 40040
# 59513
# 80165
# 123357
# 151149
#
# Disc length: 2243 seconds
#
#
# Revision: 0
# Processed by: cddbd v1.5.1PL2 Copyright (c) Steve Scherf et al.
# Submitted via: FreeRIP 2.944 
#
DISCID=5f08c108
DTITLE=Poco Crazy eyes - Crazy eyes
DYEAR=1973
DGENRE=Bluegrass
TTITLE0=Blue water
TTITLE1=Fools gold
TTITLE2=Here we go again
TTITLE3=Brass buttons
TTITLE4=A right along
TTITLE5=Crazy eyes
TTITLE6=Magnolia
TTITLE7=Let's dance tonight
EXTD=
EXTT0=
EXTT1=
EXTT2=
EXTT3=
EXTT4=
EXTT5=
EXTT6=
EXTT7=
PLAYORDER=
